<svg viewBox="0 0 40 54" fill="none" xmlns="http://www.w3.org/2000/svg">
<path fill-rule="evenodd" clip-rule="evenodd" d="M20 54C20 54 40 34.8097 40 20.25C40 14.8794 37.8929 9.7287 34.1421 5.93109C30.3914 2.13348 25.3043 0 20 0C14.6957 0 9.60859 2.13348 5.85786 5.93109C2.10714 9.7287 7.90407e-08 14.8794 0 20.25C0 34.8097 20 54 20 54ZM20 30.375C22.6522 30.375 25.1957 29.3083 27.0711 27.4095C28.9464 25.5107 30 22.9353 30 20.25C30 17.5647 28.9464 14.9894 27.0711 13.0905C25.1957 11.1917 22.6522 10.125 20 10.125C17.3478 10.125 14.8043 11.1917 12.9289 13.0905C11.0536 14.9894 10 17.5647 10 20.25C10 22.9353 11.0536 25.5107 12.9289 27.4095C14.8043 29.3083 17.3478 30.375 20 30.375Z" fill="#990037"/>
</svg>
