<svg viewBox="0 0 52 52" fill="none" xmlns="http://www.w3.org/2000/svg">
<path d="M26 0C18.2711 0 11.3445 3.39219 6.59141 8.75469L0 2.16328V19.5H17.3367L11.2227 13.3859C14.7875 9.19141 20.0586 6.5 26 6.5C36.7656 6.5 45.5 15.2242 45.5 26C45.5 36.7758 36.7656 45.5 26 45.5C20.6172 45.5 15.7422 43.3164 12.2078 39.7922L7.61719 44.3828C12.3297 49.0852 18.8297 52 26 52C40.3609 52 52 40.3609 52 26C52 11.6391 40.3609 0 26 0ZM23.8367 10.8367V28.1734H36.8367V23.8367H28.1734V10.8367H23.8367Z" fill="#990037"/>
</svg>
