<svg viewBox="0 0 114 89" fill="none" xmlns="http://www.w3.org/2000/svg">
<path d="M113.88 36.6426V39.7674C113.88 42.356 111.755 44.4545 109.135 44.4545H107.553L102.39 80.1523C101.722 84.7705 97.7183 88.2009 92.9957 88.2009H20.8838C16.1612 88.2009 12.1572 84.7705 11.4892 80.1523L6.32664 44.4545H4.74498C2.12437 44.4545 0 42.356 0 39.7674V36.6426C0 34.054 2.12437 31.9555 4.74498 31.9555H18.0588L39.17 3.28188C41.2252 0.490708 45.1817 -0.126624 48.0077 1.90348C50.8336 3.93359 51.4583 7.84205 49.4031 10.6334L33.7046 31.9555H80.1749L64.4764 10.6332C62.4212 7.84205 63.0461 3.93339 65.872 1.90329C68.6974 -0.126819 72.6545 0.490318 74.7097 3.28169L95.8207 31.9555H109.135C111.755 31.9555 113.88 34.054 113.88 36.6426ZM61.6847 71.0148V49.1416C61.6847 46.5529 59.5604 44.4545 56.9398 44.4545C54.3191 44.4545 52.1948 46.5529 52.1948 49.1416V71.0148C52.1948 73.6034 54.3191 75.7019 56.9398 75.7019C59.5604 75.7019 61.6847 73.6034 61.6847 71.0148ZM83.828 71.0148V49.1416C83.828 46.5529 81.7036 44.4545 79.083 44.4545C76.4624 44.4545 74.338 46.5529 74.338 49.1416V71.0148C74.338 73.6034 76.4624 75.7019 79.083 75.7019C81.7036 75.7019 83.828 73.6034 83.828 71.0148ZM39.5415 71.0148V49.1416C39.5415 46.5529 37.4171 44.4545 34.7965 44.4545C32.1759 44.4545 30.0515 46.5529 30.0515 49.1416V71.0148C30.0515 73.6034 32.1759 75.7019 34.7965 75.7019C37.4171 75.7019 39.5415 73.6034 39.5415 71.0148Z" fill="#990037"/>
</svg>
