<svg viewBox="0 0 88 88" fill="none" xmlns="http://www.w3.org/2000/svg">
<path d="M0.5 44.0002C0.5 67.7983 19.791 87.0893 43.5891 87.0893C67.3872 87.0893 86.6782 67.7983 86.6782 44.0002C86.6782 20.2021 67.3872 0.911133 43.5891 0.911133C19.791 0.911133 0.5 20.2021 0.5 44.0002ZM67.3276 67.7387C61.0317 74.0345 52.4927 77.5715 43.5891 77.5715C34.6854 77.5715 26.1464 74.0345 19.8506 67.7387C13.5548 61.4429 10.0178 52.9039 10.0178 44.0002C10.0178 35.0966 13.5548 26.5576 19.8506 20.2617C26.1464 13.9659 34.6854 10.4289 43.5891 10.4289C52.4927 10.4289 61.0317 13.9659 67.3276 20.2617C73.6234 26.5576 77.1603 35.0966 77.1603 44.0002C77.1603 52.9039 73.6234 61.4429 67.3276 67.7387ZM46.9541 36.3763C46.0617 35.4838 44.8512 34.9824 43.5891 34.9824C42.3269 34.9824 41.1165 35.4838 40.224 36.3763C39.3316 37.2687 38.8302 38.4792 38.8302 39.7413V61.0359C38.8302 62.298 39.3316 63.5084 40.224 64.4009C41.1165 65.2934 42.3269 65.7948 43.5891 65.7948C44.8512 65.7948 46.0617 65.2934 46.9541 64.4009C47.8466 63.5084 48.348 62.298 48.348 61.0359V39.7413C48.348 38.4792 47.8466 37.2687 46.9541 36.3763ZM40.224 30.3296C41.1165 31.2221 42.3269 31.7235 43.5891 31.7235C44.8512 31.7235 46.0617 31.2221 46.9541 30.3296C47.8466 29.4372 48.348 28.2267 48.348 26.9646C48.348 25.7024 47.8466 24.492 46.9541 23.5995C46.0617 22.7071 44.8512 22.2057 43.5891 22.2057C42.3269 22.2057 41.1165 22.7071 40.224 23.5995C39.3316 24.492 38.8302 25.7024 38.8302 26.9646C38.8302 28.2267 39.3316 29.4372 40.224 30.3296Z" fill="#990037" stroke="#990037"/>
</svg>
