<svg viewBox="0 0 88 88" fill="none" xmlns="http://www.w3.org/2000/svg">
<path d="M0.5 44C0.5 67.7981 19.791 87.0891 43.5891 87.0891C67.3872 87.0891 86.6782 67.7981 86.6782 44C86.6782 20.2019 67.3872 0.910889 43.5891 0.910889C19.791 0.910889 0.5 20.2019 0.5 44ZM67.3276 67.7384C61.0317 74.0343 52.4927 77.5712 43.5891 77.5712C34.6854 77.5712 26.1464 74.0343 19.8506 67.7384C13.5548 61.4426 10.0178 52.9036 10.0178 44C10.0178 35.0963 13.5548 26.5573 19.8506 20.2615C26.1464 13.9657 34.6854 10.4287 43.5891 10.4287C52.4927 10.4287 61.0317 13.9657 67.3276 20.2615C73.6234 26.5573 77.1603 35.0963 77.1603 44C77.1603 52.9036 73.6234 61.4426 67.3276 67.7384ZM46.9541 36.376C46.0617 35.4835 44.8512 34.9822 43.5891 34.9822C42.3269 34.9822 41.1165 35.4835 40.224 36.376C39.3316 37.2685 38.8302 38.4789 38.8302 39.7411V61.0356C38.8302 62.2977 39.3316 63.5082 40.224 64.4007C41.1165 65.2931 42.3269 65.7945 43.5891 65.7945C44.8512 65.7945 46.0617 65.2931 46.9541 64.4007C47.8466 63.5082 48.348 62.2977 48.348 61.0356V39.7411C48.348 38.4789 47.8466 37.2685 46.9541 36.376ZM40.224 30.3294C41.1165 31.2219 42.3269 31.7232 43.5891 31.7232C44.8512 31.7232 46.0617 31.2219 46.9541 30.3294C47.8466 29.4369 48.348 28.2265 48.348 26.9643C48.348 25.7022 47.8466 24.4918 46.9541 23.5993C46.0617 22.7068 44.8512 22.2054 43.5891 22.2054C42.3269 22.2054 41.1165 22.7068 40.224 23.5993C39.3316 24.4918 38.8302 25.7022 38.8302 26.9643C38.8302 28.2265 39.3316 29.4369 40.224 30.3294Z" fill="#C1C1C1" stroke="#C1C1C1"/>
</svg>
