<svg viewBox="0 0 85 86" fill="none" xmlns="http://www.w3.org/2000/svg">
<path fill-rule="evenodd" clip-rule="evenodd" d="M7.0596 85.1261C7.0596 85.1261 0 85.1261 0 78.0665C0 71.0069 7.0596 49.8281 42.3576 49.8281C77.6556 49.8281 84.7152 71.0069 84.7152 78.0665C84.7152 85.1261 77.6556 85.1261 77.6556 85.1261H7.0596ZM42.3576 42.7685C47.9746 42.7685 53.3615 40.5372 57.3333 36.5654C61.3051 32.5936 63.5364 27.2067 63.5364 21.5897C63.5364 15.9727 61.3051 10.5858 57.3333 6.61402C53.3615 2.64222 47.9746 0.410889 42.3576 0.410889C36.7407 0.410889 31.3537 2.64222 27.3819 6.61402C23.4101 10.5858 21.1788 15.9727 21.1788 21.5897C21.1788 27.2067 23.4101 32.5936 27.3819 36.5654C31.3537 40.5372 36.7407 42.7685 42.3576 42.7685Z" fill="#C1C1C1"/>
</svg>
