<svg viewBox="0 0 94 94" fill="none" xmlns="http://www.w3.org/2000/svg">
<path d="M80.2692 33.2692V13.7308H60.7723L46.917 0L33.2692 13.7308H13.7308V33.2692L0 46.917L13.7308 60.7723V80.2692H33.2692L46.917 94L60.7723 80.2692H80.2692V60.7723L94 46.917L80.2692 33.2692ZM33.767 26.3831C37.8323 26.3831 41.1094 29.6602 41.1094 33.767C41.1094 35.7143 40.3359 37.5819 38.9589 38.9589C37.5819 40.3359 35.7143 41.1094 33.767 41.1094C29.6602 41.1094 26.3831 37.8323 26.3831 33.767C26.3831 29.6602 29.6602 26.3831 33.767 26.3831ZM60.2745 67.6584C56.2092 67.6584 52.932 64.3398 52.932 60.2745C52.932 58.3272 53.7056 56.4596 55.0826 55.0826C56.4596 53.7056 58.3272 52.932 60.2745 52.932C64.3398 52.932 67.6584 56.2092 67.6584 60.2745C67.6584 62.2328 66.8805 64.111 65.4957 65.4957C64.111 66.8805 62.2328 67.6584 60.2745 67.6584ZM32.3981 67.7829L26.1756 61.5605L61.5605 26.1756L67.7829 32.3981L32.3981 67.7829Z" fill="#C1C1C1"/>
</svg>
