<svg viewBox="0 0 88 88" fill="none" xmlns="http://www.w3.org/2000/svg">
<path d="M84.7949 76.6329L84.7763 76.6121L84.7565 76.5923L66.473 58.3088C70.822 52.2175 73.1624 44.9119 73.1542 37.4129C73.1536 17.5198 56.9704 1.33691 37.0771 1.33691C17.1834 1.33691 1 17.5203 1 37.414C1 57.3073 17.1828 73.4905 37.076 73.4911C44.575 73.4993 51.8806 71.1589 57.9719 66.8099L76.2554 85.0934L76.2751 85.1132L76.296 85.1318C77.4427 86.1569 78.9383 86.7041 80.4758 86.661C82.0133 86.618 83.4759 85.988 84.5635 84.9004C85.6511 83.8129 86.2811 82.3502 86.3241 80.8127C86.3671 79.2752 85.82 77.7796 84.7949 76.6329ZM13.022 37.4136C13.0221 32.6561 14.4329 28.0055 17.076 24.0497C19.7192 20.0939 23.4761 17.0107 27.8716 15.19C32.2671 13.3694 37.1038 12.893 41.77 13.8212C46.4362 14.7493 50.7225 17.0403 54.0866 20.4045C57.4508 23.7687 59.7418 28.0549 60.67 32.7211C61.5981 37.3873 61.1218 42.224 59.3011 46.6195C57.4804 51.015 54.3972 54.7719 50.4414 57.4151C46.4859 60.0581 41.8355 61.4689 37.0783 61.4691C30.7005 61.4614 24.5862 58.9245 20.0764 54.4147C15.5668 49.9052 13.0299 43.7911 13.022 37.4136Z" fill="#C1C1C1" stroke="#C1C1C1" stroke-width="2"/>
</svg>
